 <svg width="70" height="50" viewBox="158.88 155.7463 149.1937 20.5926" xmlns="http://www.w3.org/2000/svg">
                            <g opacity="1">

                                <path strokeWidth="0" d="M 273.365 156.335 C 285.207 155.827 301.51 155.314 305.841 156.335 C 307.427 156.708 307.849 157.309 307.986 157.866 C 308.103 158.343 308.3 158.93 307.066 159.398 C 301.87 161.372 264.115 160.408 242.115 163.075 C 219.407 165.828 186.029 174.519 172.875 175.942 C 166.34 176.65 162.671 176.257 160.62 175.942 C 159.701 175.801 159.252 175.75 159.088 175.33 C 158.892 174.825 158.459 173.766 160.008 172.879 C 165.787 169.568 209.103 162.763 229.248 160.011 C 245.978 157.725 259.962 156.909 273.365 156.335 Z" fill="white" />
                            </g>
                        </svg>